<?xml version="1.0" encoding="utf-8"?>
<svg viewBox="0 0 1920 1920" xmlns="http://www.w3.org/2000/svg">
  <g transform="matrix(0.244862, 0, 0, -0.208123, -1391.159546, 2962.234375)" fill="#FC5A31" stroke="none" style="">
    <path d="M8610 14209 c-676 -59 -1335 -320 -1860 -737 -118 -94 -373 -348 -464 -462 -227 -284 -417 -649 -504 -965 -83 -303 -93 -391 -99 -907 l-6 -438 3918 0 3917 0 -5 453 c-5 505 -10 561 -77 822 -132 517 -438 1014 -852 1382 -554 493 -1249 787 -2013 852 -143 13 -1814 12 -1955 0z m1865 -369 c441 -32 812 -132 1195 -322 295 -146 498 -288 723 -508 229 -222 381 -427 507 -685 116 -236 179 -438 216 -685 18 -119 27 -552 12 -557 -5 -2 -1597 -3 -3539 -3 l-3531 0 5 258 c3 179 10 284 21 347 96 514 312 922 686 1295 470 470 1081 759 1785 844 72 9 157 17 190 19 162 8 1607 6 1730 -3z"/>
    <path d="M8069 13092 c-164 -86 -146 -321 30 -380 129 -44 271 59 271 195 -1 86 -53 164 -132 197 -56 24 -108 20 -169 -12z"/>
    <path d="M9526 13106 c-147 -55 -182 -249 -63 -353 100 -88 246 -62 315 57 95 160 -76 361 -252 296z"/>
    <path d="M10960 13107 c-19 -6 -53 -30 -76 -52 -140 -141 -17 -380 179 -351 90 14 166 94 175 185 14 153 -129 265 -278 218z"/>
    <path d="M7249 11977 c-66 -35 -102 -93 -107 -170 -4 -77 24 -138 86 -182 54 -37 150 -47 203 -20 128 65 164 214 77 320 -62 75 -173 97 -259 52z"/>
    <path d="M8700 11984 c-81 -35 -123 -100 -123 -189 0 -87 38 -148 122 -190 51 -26 146 -17 199 17 57 38 96 120 90 188 -14 141 -160 229 -288 174z"/>
    <path d="M10120 11978 c-148 -75 -145 -301 5 -369 103 -47 225 -6 276 93 38 75 19 188 -43 245 -59 56 -162 69 -238 31z"/>
    <path d="M11690 11984 c-164 -71 -162 -310 2 -379 50 -20 124 -19 173 4 149 67 153 290 6 368 -52 27 -128 30 -181 7z"/>
    <path d="M6301 10564 c-90 -19 -189 -69 -306 -154 -109 -78 -186 -120 -225 -120 -14 0 -35 -3 -47 -6 -23 -6 -23 -8 -23 -191 l0 -186 70 7 c157 16 268 62 419 175 123 93 164 111 256 118 114 9 179 -12 295 -97 127 -93 206 -137 298 -168 67 -22 94 -26 217 -26 211 0 315 37 514 184 123 91 161 105 281 105 116 -1 144 -12 288 -118 184 -136 286 -171 487 -171 202 0 312 39 496 177 133 99 163 111 279 112 122 0 162 -15 293 -113 108 -80 225 -141 317 -163 79 -20 288 -18 370 4 93 25 192 76 293 152 143 108 173 120 297 120 124 0 146 -9 284 -111 113 -84 191 -126 286 -156 63 -19 96 -23 210 -22 207 0 302 34 498 177 133 98 171 112 292 112 116 -1 147 -13 280 -113 153 -115 265 -162 419 -178 l70 -6 3 186 3 186 -45 5 c-77 10 -126 34 -237 115 -190 140 -302 180 -495 180 -196 0 -316 -42 -495 -173 -137 -100 -185 -120 -293 -121 -105 0 -154 20 -285 117 -180 134 -300 177 -489 177 -199 0 -324 -44 -501 -176 -127 -95 -178 -117 -279 -118 -111 -1 -160 19 -291 116 -184 136 -303 178 -500 178 -192 0 -313 -43 -485 -171 -138 -104 -184 -123 -295 -123 -111 0 -156 19 -295 123 -169 127 -293 171 -482 171 -196 0 -316 -42 -495 -173 -122 -89 -155 -106 -238 -118 -119 -19 -200 9 -337 113 -175 132 -304 179 -497 177 -64 0 -145 -7 -180 -15z"/>
    <path d="M5949 9726 c-99 -26 -199 -111 -242 -204 -22 -46 -22 -55 -22 -567 0 -514 0 -521 22 -568 33 -70 113 -149 186 -183 l62 -29 3620 -3 c3608 -2 3620 -2 3685 18 81 25 134 61 183 125 67 89 67 91 67 640 0 386 -3 502 -14 537 -31 103 -126 194 -237 229 -59 18 -136 19 -2305 19 l-2243 0 -353 -164 c-371 -172 -766 -356 -931 -433 -53 -26 -99 -44 -101 -42 -1 2 -41 69 -88 149 -47 80 -131 223 -187 318 l-102 172 -477 -1 c-345 0 -490 -4 -523 -13z m7183 -771 l-2 -405 -163 0 -162 0 3 395 2 395 158 2 157 2 -165 6 -165 6 170 2 170 2 -3 -405z"/>
    <path d="M13106 9315 c-3 -8 -1 -15 4 -15 6 0 10 7 10 15 0 8 -2 15 -4 15 -2 0 -6 -7 -10 -15z"/>
    <path d="M13108 8925 c-2 -201 0 -365 5 -365 4 0 7 164 7 365 0 201 -2 365 -5 365 -2 0 -6 -164 -7 -365z"/>
    <path d="M13068 8563 c7 -3 16 -2 19 1 4 3 -2 6 -13 5 -11 0 -14 -3 -6 -6z"/>
    <path d="M6369 7899 c-134 -17 -250 -71 -404 -188 -88 -67 -164 -101 -225 -101 l-40 0 0 -191 0 -191 68 7 c157 16 270 63 422 177 124 92 165 110 266 116 119 6 169 -12 300 -108 194 -143 307 -184 504 -184 200 0 311 40 504 182 126 92 177 112 285 112 99 -1 157 -25 283 -117 112 -83 184 -122 288 -154 108 -34 302 -34 410 0 96 29 200 85 298 159 117 90 152 105 254 110 121 6 166 -11 312 -116 194 -140 343 -189 534 -178 177 11 285 54 466 186 121 89 173 110 276 110 103 0 155 -21 276 -110 195 -144 304 -184 504 -184 201 0 301 35 498 178 142 102 190 120 305 114 102 -6 146 -24 268 -116 149 -111 270 -162 417 -177 l72 -7 0 190 0 190 -53 4 c-69 6 -123 33 -238 119 -171 128 -298 173 -489 173 -188 -1 -317 -47 -485 -175 -128 -97 -164 -112 -275 -117 -120 -5 -173 13 -285 99 -115 87 -180 124 -268 154 -114 38 -227 50 -337 36 -157 -20 -263 -67 -425 -190 -112 -86 -165 -104 -285 -99 -111 5 -148 21 -275 117 -168 128 -295 174 -485 174 -195 0 -317 -43 -490 -173 -136 -101 -166 -114 -278 -118 -120 -5 -156 8 -292 106 -198 144 -321 188 -515 186 -184 -2 -315 -49 -480 -175 -125 -95 -164 -112 -271 -117 -122 -6 -167 10 -296 105 -128 94 -165 115 -254 146 -118 42 -231 53 -365 36z"/>
    <path d="M5685 7038 c3 -13 16 -78 30 -146 96 -459 283 -810 610 -1138 392 -393 869 -633 1460 -734 222 -38 406 -42 1940 -38 1631 4 1541 1 1860 73 885 198 1599 822 1836 1602 25 85 89 366 89 393 0 7 -1431 10 -3915 10 l-3915 0 5 -22z m7340 -375 c-12 -51 -112 -247 -172 -338 -206 -312 -514 -575 -860 -736 -206 -96 -396 -155 -648 -201 -120 -22 -122 -23 -1680 -26 -1124 -2 -1591 0 -1670 8 -778 81 -1449 516 -1754 1135 -38 77 -72 150 -76 163 l-6 22 3436 0 3437 0 -7 -27z"/>
  </g>
</svg>